<svg height='300px' width='300px'  fill="#000000" xmlns="http://www.w3.org/2000/svg" xmlns:xlink="http://www.w3.org/1999/xlink" version="1.0" x="0px" y="0px" viewBox="0 0 100 100" enable-background="new 0 0 100 100" xml:space="preserve"><path d="M89.999,36.666v-3.337c0-11.045-8.958-20-20-19.997c-7.324,0-13.262,5.912-13.323,13.217  c-6.12-7.035-13.575-12.676-21.879-16.55c-1.683,3.61-2.623,7.366-2.959,11.116c-6.656-3.805-13.863-6.468-21.324-7.783  C7.316,31.461,19.419,48.753,37.55,51.949l7.084,1.247c-3.344,4.547-4.35,10.645-2.031,16.24l2.552,6.155  c4.932,11.907,18.578,17.559,30.486,12.627c8.629-3.574,13.955-11.741,14.358-20.501c-0.325,0.179-0.632,0.384-0.983,0.527  c-5.101,2.112-10.953-0.31-13.066-5.41L73.4,56.679c-1.214-2.936-3.206-5.293-5.599-7.037l0.188-0.404  c2.26-2.044,3.676-4.668,3.676-7.571c0-0.573-0.114-1.12-0.215-1.667h15.215C88.505,39.999,89.999,38.505,89.999,36.666z   M56.666,36.666c4.603,0,8.333,2.236,8.333,5c0,2.761-3.73,5-8.333,5c-4.604,0-8.334-2.239-8.334-5  C48.332,38.902,52.063,36.666,56.666,36.666z M69.791,65.387c0.439,1.058,0.992,2.031,1.611,2.946l-18.5,7.662  c-0.618-0.914-1.152-1.9-1.592-2.955l-1.221-2.949l18.481-7.653L69.791,65.387z M48.068,63.714c-0.27-4.157,2.051-8.213,6.108-9.893  c4.056-1.684,8.567-0.453,11.314,2.676L48.068,63.714z M38.709,45.384c-12.044-2.126-20.781-12.067-21.914-23.683  c9.89,3.076,18.694,8.662,25.716,16.254c-0.508,1.172-0.846,2.405-0.846,3.711c0,1.572,0.413,3.069,1.139,4.44L38.709,45.384z   M38.453,25.416c-0.098-1.895-0.068-3.803,0.247-5.707c4.837,3.057,9.141,6.781,12.859,11.032c-1.743,0.492-3.318,1.225-4.688,2.155  C44.244,30.143,41.434,27.636,38.453,25.416z M81.027,75.14c-1.803,3.053-4.561,5.521-7.939,6.92  c-5.006,2.074-10.433,1.462-14.785-1.087l18.438-7.637C78.085,74.127,79.521,74.749,81.027,75.14z M83.332,33.333H69.999  c-3.672,0-6.66-2.992-6.66-6.667v-0.303c0.156-3.535,3.083-6.364,6.66-6.364c3.562,0,6.911,1.387,9.427,3.903  c2.52,2.52,3.906,5.865,3.906,9.427V33.333z"></path></svg>