<svg height='300px' width='300px'  fill="#000000" xmlns="http://www.w3.org/2000/svg" xmlns:xlink="http://www.w3.org/1999/xlink" xml:space="preserve" version="1.1" style="shape-rendering:geometricPrecision;text-rendering:geometricPrecision;image-rendering:optimizeQuality;" viewBox="0 0 333 333" x="0px" y="0px" fill-rule="evenodd" clip-rule="evenodd"><defs><style type="text/css">
   
    .fil0 {fill:#000000}
   
  </style></defs><g><path class="fil0" d="M167 300c-21,21 -53,30 -81,14 -34,-20 -39,-64 -21,-96 1,-1 2,-2 3,-3 -2,-1 -3,-1 -5,-1 -27,-8 -50,-29 -54,-58 -1,-8 -1,-16 1,-25 10,-37 51,-54 87,-44 2,0 3,1 4,1 0,-1 0,-3 0,-4 0,-37 27,-73 66,-73 38,0 65,36 65,73 0,1 0,3 0,4 1,0 3,-1 4,-1 36,-10 77,7 87,44 2,9 3,17 1,25 -4,29 -27,50 -54,58 -1,0 -3,0 -4,1 1,1 1,2 2,3 19,32 13,76 -21,96 -27,16 -59,7 -80,-14zm-57 -45c-1,2 6,7 8,4l31 -47c5,2 11,4 18,4 6,0 12,-2 17,-4l31 47c1,3 9,-2 7,-4l-25 -50c11,-9 19,-23 19,-38 0,-2 0,-4 -1,-5l53 -17c3,-1 0,-10 -2,-9l-54 11c-7,-15 -21,-26 -38,-29l-3 -55c0,-2 -9,-2 -9,1l-3 54c-17,3 -31,14 -37,30l-55 -12c-3,-1 -5,8 -2,9l53 17c0,2 0,3 0,5 0,15 7,29 18,38l-26 50zm129 45c-25,14 -58,1 -72,-27 -15,28 -48,41 -73,27 -24,-14 -30,-47 -15,-74 5,-7 12,-16 20,-25 -12,1 -23,-1 -32,-3 -30,-8 -48,-36 -41,-62 7,-27 37,-42 67,-34 9,3 19,7 29,14 -3,-12 -5,-23 -5,-32 0,-31 22,-56 50,-57 27,1 49,26 49,57 0,9 -2,20 -5,32 10,-7 21,-11 29,-14 30,-8 60,7 67,34 8,26 -11,54 -41,62 -9,2 -20,4 -32,3 9,9 16,18 20,25 16,27 9,60 -15,74z"></path></g></svg>