<svg height='300px' width='300px'  fill="#000000" xmlns="http://www.w3.org/2000/svg" xmlns:xlink="http://www.w3.org/1999/xlink" version="1.1" x="0px" y="0px" viewBox="0 0 100 100" style="enable-background:new 0 0 100 100;" xml:space="preserve"><path d="M81.1,31.5c-1.2,0.4-2.4,0.6-3.9,0.6c-3.6,0-5.5-1.2-7.2-2.3c-1.5-1-2.8-1.8-5.4-1.8s-3.9,0.8-5.4,1.8  c-1.7,1.1-3.5,2.3-7.2,2.3c-3.6,0-5.5-1.2-7.2-2.3c-1.5-1-2.7-1.8-5.4-1.8s-3.9,0.8-5.4,1.8c-1.7,1.1-3.5,2.3-7.2,2.3  c-1.4,0-2.7-0.2-3.9-0.6c-4.2,5.5-6.4,12-6.4,18.8c0,11.4,6.4,30.2,17,42.2c0.9,1.1,2.1,1.6,3.5,1.6h30c1.4,0,2.5-0.5,3.4-1.6  c10.5-12,17-30.8,17-42.2C87.4,43.5,85.2,37,81.1,31.5z M79.4,56.9c-0.9,5.1-2.7,10.6-5.1,15.6c-1.8,3.8-3.7,7.1-5.6,9.6  c-0.3,0.4-0.8,0.6-1.2,0.6c-0.3,0-0.6-0.1-0.9-0.3c-0.7-0.5-0.8-1.4-0.3-2.1c1.8-2.4,3.5-5.5,5.3-9.2c2.3-4.7,4-10,4.8-14.8  c0.2-0.8,0.9-1.3,1.7-1.2C79,55.3,79.6,56.1,79.4,56.9z M78.6,49.7c-0.1,0-0.1,0-0.1,0c-0.8,0-1.4-0.6-1.5-1.4  c-0.2-2.4-0.8-4.7-1.9-6.8c-0.3-0.7,0-1.6,0.7-2c0.8-0.3,1.6,0,2,0.7c1.2,2.5,1.9,5.1,2.1,7.8C80,48.8,79.4,49.6,78.6,49.7z   M73.3,6.1H30.7C28.1,6.1,26,8.4,26,11v4h52v-4C78,8.4,75.9,6.1,73.3,6.1z M87.1,25.3L78,18H26l-9.1,7.3c1.5,0.5,3.5,1.2,4.5,1.8  c1.5,1,2.7,1.8,5.4,1.8c2.7,0,3.9-0.8,5.4-1.8c1.7-1.1,3.6-2.3,7.2-2.3s5.5,1.2,7.2,2.3c1.5,1,2.7,1.8,5.4,1.8s3.9-0.8,5.4-1.8  c1.7-1.1,3.6-2.3,7.2-2.3c3.6,0,5.5,1.2,7.2,2.3c1.5,1,2.8,1.8,5.4,1.8s3.8-1,5.4-1.8C83.9,26.5,85.6,25.8,87.1,25.3z"></path></svg>